<svg xmlns="http://www.w3.org/2000/svg" data-name="Layer 1" viewBox="0 0 100 125" x="0px" y="0px" style="stroke: #ffffff; fill: #ffffff; stroke-width: 0px;"><title>Calendar</title><path d="M41.63,82.44H30.91a2,2,0,0,1-2-2V70.17a2,2,0,0,1,2-2h7.61A29.86,29.86,0,0,1,39,63.61H30.91a2,2,0,0,1-2-2V51.34a2,2,0,0,1,2-2H41.73a2,2,0,0,1,2,2V52a31,31,0,0,1,6.77-7.17h-.22a2,2,0,0,1-2-2V32.5a2,2,0,0,1,2-2H61.09a2,2,0,0,1,2,2v6.58a31.21,31.21,0,0,1,4.56-.55v-6a2,2,0,0,1,2-2H80.45a2,2,0,0,1,2,2v9.13A30.12,30.12,0,0,1,87,44.4V15.84a5,5,0,0,0-5-5H72.88v-3A2.85,2.85,0,0,0,70.29,5a2.74,2.74,0,0,0-2.88,2.73v3.12H24.59v-3A2.85,2.85,0,0,0,22,5a2.74,2.74,0,0,0-2.88,2.73v3.12H10a5,5,0,0,0-5,5V82a5,5,0,0,0,5,5H44.4A30.12,30.12,0,0,1,41.63,82.44ZM67.41,14.33v5.25a2.74,2.74,0,0,0,5.47,0V14.33a5.93,5.93,0,1,1-5.47,0ZM28.92,32.5a2,2,0,0,1,2-2H41.73a2,2,0,0,1,2,2V42.79a2,2,0,0,1-2,2H30.91a2,2,0,0,1-2-2Zm-4.56,48a2,2,0,0,1-2,2H11.55a2,2,0,0,1-2-2V70.17a2,2,0,0,1,2-2H22.37a2,2,0,0,1,2,2Zm0-18.83a2,2,0,0,1-2,2H11.55a2,2,0,0,1-2-2V51.34a2,2,0,0,1,2-2H22.37a2,2,0,0,1,2,2Zm0-18.83a2,2,0,0,1-2,2H11.55a2,2,0,0,1-2-2V32.5a2,2,0,0,1,2-2H22.37a2,2,0,0,1,2,2ZM21.86,25.5a5.92,5.92,0,0,1-2.74-11.17v5.25a2.74,2.74,0,0,0,5.47,0V14.33A5.92,5.92,0,0,1,21.86,25.5Z"/><path d="M69,95A26,26,0,1,1,95,69,26,26,0,0,1,69,95Zm0-46.62A20.62,20.62,0,1,0,89.62,69,20.64,20.64,0,0,0,69,48.38Z"/><path d="M82.67,71.69H69A2.69,2.69,0,0,1,66.31,69V58a2.69,2.69,0,1,1,5.38,0v8.29h11a2.69,2.69,0,1,1,0,5.38Z"/></svg>