<svg xmlns:dc="http://purl.org/dc/elements/1.1/" xmlns:cc="http://creativecommons.org/ns#" xmlns:rdf="http://www.w3.org/1999/02/22-rdf-syntax-ns#" xmlns:svg="http://www.w3.org/2000/svg" xmlns="http://www.w3.org/2000/svg" xmlns:sodipodi="http://sodipodi.sourceforge.net/DTD/sodipodi-0.dtd" xmlns:inkscape="http://www.inkscape.org/namespaces/inkscape" viewBox="0 0 6.3499999 7.93750025" version="1.1" x="0px" y="0px" style="stroke: #ffffff; fill: #ffffff; stroke-width: 0px;"><g transform="translate(0,-2.1166667)"><path style="color:#000000;font-style:normal;font-variant:normal;font-weight:normal;font-stretch:normal;font-size:medium;line-height:normal;font-family:sans-serif;font-variant-ligatures:normal;font-variant-position:normal;font-variant-caps:normal;font-variant-numeric:normal;font-variant-alternates:normal;font-feature-settings:normal;text-indent:0;text-align:start;text-decoration:none;text-decoration-line:none;text-decoration-style:solid;text-decoration-color:#000000;letter-spacing:normal;word-spacing:normal;text-transform:none;writing-mode:lr-tb;direction:ltr;text-orientation:mixed;dominant-baseline:auto;baseline-shift:baseline;text-anchor:start;white-space:normal;shape-padding:0;clip-rule:nonzero;display:inline;overflow:visible;visibility:visible;opacity:1;isolation:auto;mix-blend-mode:normal;color-interpolation:sRGB;color-interpolation-filters:linearRGB;solid-color:#000000;solid-opacity:1;vector-effect:none;fill:#000000;fill-opacity:1;fill-rule:nonzero;stroke:none;stroke-width:0.5291667;stroke-linecap:round;stroke-linejoin:round;stroke-miterlimit:4;stroke-dasharray:none;stroke-dashoffset:0;stroke-opacity:1;paint-order:normal;color-rendering:auto;image-rendering:auto;shape-rendering:auto;text-rendering:auto;enable-background:accumulate" d="M 0.79278101,2.1166668 C 0.35758461,2.1166668 0,2.4742515 0,2.9094478 V 4.2319554 C 0,4.6671517 0.35758461,5.0273203 0.79278101,5.0273203 H 2.1173558 c 0.4351963,0 0.792781,-0.3601686 0.792781,-0.7953649 V 2.9094478 c 0,-0.4351963 -0.3575847,-0.792781 -0.792781,-0.792781 z m 3.43986339,0 c -0.4351965,0 -0.7927811,0.3575847 -0.7927811,0.792781 v 1.3225076 c 0,0.4351963 0.3575846,0.7953649 0.7927811,0.7953649 H 5.557219 c 0.4351965,0 0.7927811,-0.3601686 0.7927811,-0.7953649 V 2.9094478 c 0,-0.4351963 -0.3575846,-0.792781 -0.7927811,-0.792781 z M 0.79278101,5.5565301 C 0.35758461,5.5565301 0,5.9141147 0,6.3493111 V 7.6738858 C 0,8.1090822 0.35758461,8.4666669 0.79278101,8.4666669 H 2.1173558 c 0.4351963,0 0.792781,-0.3575847 0.792781,-0.7927811 V 6.3493111 c 0,-0.4351964 -0.3575847,-0.792781 -0.792781,-0.792781 z m 3.43986339,0 c -0.4351965,0 -0.7927811,0.3575846 -0.7927811,0.792781 v 1.3245747 c 0,0.4351964 0.3575846,0.7927811 0.7927811,0.7927811 H 5.557219 c 0.4351965,0 0.7927811,-0.3575847 0.7927811,-0.7927811 V 6.3493111 c 0,-0.4351964 -0.3575846,-0.792781 -0.7927811,-0.792781 z"/></g></svg>