<svg xmlns="http://www.w3.org/2000/svg" xmlns:xlink="http://www.w3.org/1999/xlink" version="1.1" x="0px" y="0px" viewBox="0 0 20 25" style="stroke: #ffffff; fill: #ffffff; stroke-width: 0px;  enable-background:new 0 0 20 20;" xml:space="preserve"><style type="text/css">
	.st0{clip-path:url(#d);}
	.st1{clip-path:url(#c);}
</style><g><g><defs><path id="b" d="M7.9,1.9c0,0-1.1,5.5-3,10.5l3.8-2.3L7.9,1.9z"/></defs><clipPath id="d"><use xlink:href="#b" style="" overflow="visible"/></clipPath><g class="st0"><path d="M11.8-3C11.8-3,11.7-3,11.8-3L1.4,6.9c0,0,0,0,0,0c0,0,0,0,0,0c0,0,0,0,0,0L11.8-3C11.8-2.9,11.8-3,11.8-3z"/><path d="M11.9-2.6C11.9-2.7,11.9-2.7,11.9-2.6L1.5,7.2c0,0,0,0,0,0c0,0,0,0,0,0c0,0,0,0,0,0L11.9-2.6C11.9-2.6,11.9-2.6,11.9-2.6     z"/><path d="M12-2.3C12-2.3,12-2.3,12-2.3L1.6,7.5c0,0,0,0,0,0c0,0,0,0,0,0c0,0,0,0,0,0L12-2.3C12-2.3,12-2.3,12-2.3z"/><path d="M12.1-2C12.1-2,12.1-2,12.1-2L1.8,7.9c0,0,0,0,0,0c0,0,0,0,0,0c0,0,0,0,0,0L12.1-2C12.2-2,12.2-2,12.1-2z"/><path d="M12.3-1.7C12.3-1.7,12.2-1.7,12.3-1.7L1.9,8.2c0,0,0,0,0,0c0,0,0,0,0,0c0,0,0,0,0,0L12.3-1.7C12.3-1.6,12.3-1.6,12.3-1.7     z"/><path d="M12.4-1.3C12.4-1.3,12.4-1.3,12.4-1.3L2,8.5c0,0,0,0,0,0c0,0,0,0,0,0c0,0,0,0,0,0L12.4-1.3C12.4-1.3,12.4-1.3,12.4-1.3z"/><path d="M12.5-1C12.5-1,12.5-1,12.5-1L2.1,8.8c0,0,0,0,0,0c0,0,0,0,0,0c0,0,0,0,0,0L12.5-1C12.5-1,12.5-1,12.5-1z"/><path d="M12.6-0.7C12.6-0.7,12.6-0.7,12.6-0.7L2.3,9.2c0,0,0,0,0,0c0,0,0,0,0,0c0,0,0,0,0,0L12.6-0.7C12.7-0.6,12.7-0.7,12.6-0.7     z"/><path d="M12.8-0.4C12.8-0.4,12.7-0.4,12.8-0.4L2.4,9.5c0,0,0,0,0,0c0,0,0,0,0,0c0,0,0,0,0,0L12.8-0.4C12.8-0.3,12.8-0.3,12.8-0.4     z"/><path d="M12.9,0C12.9,0,12.9,0,12.9,0L2.5,9.8c0,0,0,0,0,0c0,0,0,0,0,0c0,0,0,0,0,0L12.9,0C12.9,0,12.9,0,12.9,0z"/><path d="M13,0.3C13,0.3,13,0.3,13,0.3L2.6,10.2c0,0,0,0,0,0c0,0,0,0,0,0c0,0,0,0,0,0L13,0.3C13,0.3,13,0.3,13,0.3z"/><path d="M13.1,0.6C13.1,0.6,13.1,0.6,13.1,0.6L2.8,10.5c0,0,0,0,0,0c0,0,0,0,0,0c0,0,0,0,0,0L13.1,0.6     C13.1,0.7,13.1,0.6,13.1,0.6z"/><path d="M13.3,1C13.3,0.9,13.2,0.9,13.3,1L2.9,10.8c0,0,0,0,0,0c0,0,0,0,0,0c0,0,0,0,0,0L13.3,1C13.3,1,13.3,1,13.3,1z"/><path d="M13.4,1.3C13.4,1.3,13.4,1.3,13.4,1.3L3,11.1c0,0,0,0,0,0c0,0,0,0,0,0c0,0,0,0,0,0L13.4,1.3C13.4,1.3,13.4,1.3,13.4,1.3z     "/><path d="M13.5,1.6C13.5,1.6,13.5,1.6,13.5,1.6L3.1,11.5c0,0,0,0,0,0c0,0,0,0,0,0c0,0,0,0,0,0L13.5,1.6     C13.5,1.6,13.5,1.6,13.5,1.6z"/><path d="M13.6,1.9C13.6,1.9,13.6,1.9,13.6,1.9L3.3,11.8c0,0,0,0,0,0c0,0,0,0,0,0c0,0,0,0,0,0L13.6,1.9C13.6,2,13.6,2,13.6,1.9z"/><path d="M13.8,2.3C13.8,2.3,13.7,2.3,13.8,2.3L3.4,12.1c0,0,0,0,0,0c0,0,0,0,0,0c0,0,0,0,0,0L13.8,2.3     C13.8,2.3,13.8,2.3,13.8,2.3z"/><path d="M13.9,2.6C13.9,2.6,13.9,2.6,13.9,2.6L3.5,12.4c0,0,0,0,0,0c0,0,0,0,0,0c0,0,0,0,0,0L13.9,2.6     C13.9,2.6,13.9,2.6,13.9,2.6z"/><path d="M14,2.9C14,2.9,14,2.9,14,2.9L3.6,12.8c0,0,0,0,0,0c0,0,0,0,0,0c0,0,0,0,0,0L14,2.9C14,3,14,2.9,14,2.9z"/><path d="M14.1,3.2C14.1,3.2,14.1,3.2,14.1,3.2L3.8,13.1c0,0,0,0,0,0c0,0,0,0,0,0c0,0,0,0,0,0L14.1,3.2     C14.1,3.3,14.1,3.3,14.1,3.2z"/><path d="M14.3,3.6C14.2,3.6,14.2,3.6,14.3,3.6L3.9,13.4c0,0,0,0,0,0c0,0,0,0,0,0c0,0,0,0,0,0L14.3,3.6     C14.3,3.6,14.3,3.6,14.3,3.6z"/><path d="M14.4,3.9C14.4,3.9,14.4,3.9,14.4,3.9L4,13.8c0,0,0,0,0,0c0,0,0,0,0,0c0,0,0,0,0,0L14.4,3.9C14.4,3.9,14.4,3.9,14.4,3.9z     "/><path d="M14.5,4.2C14.5,4.2,14.5,4.2,14.5,4.2L4.1,14.1c0,0,0,0,0,0c0,0,0,0,0,0c0,0,0,0,0,0L14.5,4.2     C14.5,4.3,14.5,4.2,14.5,4.2z"/><path d="M14.6,4.6C14.6,4.5,14.6,4.5,14.6,4.6L4.3,14.4c0,0,0,0,0,0c0,0,0,0,0,0c0,0,0,0,0,0L14.6,4.6     C14.6,4.6,14.6,4.6,14.6,4.6z"/><path d="M14.8,4.9C14.7,4.9,14.7,4.9,14.8,4.9L4.4,14.7c0,0,0,0,0,0c0,0,0,0,0,0c0,0,0,0,0,0L14.8,4.9     C14.8,4.9,14.8,4.9,14.8,4.9z"/><path d="M14.9,5.2C14.9,5.2,14.9,5.2,14.9,5.2L4.5,15.1c0,0,0,0,0,0c0,0,0,0,0,0c0,0,0,0,0,0L14.9,5.2     C14.9,5.2,14.9,5.2,14.9,5.2z"/><path d="M15,5.5C15,5.5,15,5.5,15,5.5L4.6,15.4c0,0,0,0,0,0c0,0,0,0,0,0c0,0,0,0,0,0L15,5.5C15,5.6,15,5.6,15,5.5z"/><path d="M15.1,5.9C15.1,5.9,15.1,5.9,15.1,5.9L4.8,15.7c0,0,0,0,0,0c0,0,0,0,0,0c0,0,0,0,0,0L15.1,5.9     C15.1,5.9,15.1,5.9,15.1,5.9z"/><path d="M15.3,6.2C15.2,6.2,15.2,6.2,15.3,6.2L4.9,16c0,0,0,0,0,0c0,0,0,0,0,0c0,0,0,0,0,0L15.3,6.2C15.3,6.2,15.3,6.2,15.3,6.2z     "/><path d="M15.4,6.5C15.4,6.5,15.4,6.5,15.4,6.5L5,16.4c0,0,0,0,0,0c0,0,0,0,0,0c0,0,0,0,0,0L15.4,6.5C15.4,6.6,15.4,6.5,15.4,6.5z     "/></g></g><g><defs><path id="a" d="M7.8,0.6c0,0,5,4.1,0.9,9.4l5.5-3.2C14.2,6.9,14.9,1.2,7.8,0.6z"/></defs><clipPath id="c"><use xlink:href="#a" style="" overflow="visible"/></clipPath><g class="st1"><path d="M14.8-3.3C14.8-3.3,14.8-3.3,14.8-3.3L4.4,6.5c0,0,0,0,0,0c0,0,0,0,0,0c0,0,0,0,0,0L14.8-3.3C14.8-3.3,14.8-3.3,14.8-3.3     z"/><path d="M14.9-3C14.9-3,14.9-3,14.9-3L4.5,6.9c0,0,0,0,0,0c0,0,0,0,0,0c0,0,0,0,0,0L14.9-3C14.9-3,14.9-3,14.9-3z"/><path d="M14-5.3C14-5.3,14-5.3,14-5.3L3.7,4.6c0,0,0,0,0,0c0,0,0,0,0,0c0,0,0,0,0,0L14-5.3C14-5.2,14-5.3,14-5.3z"/><path d="M14.2-4.9C14.1-5,14.1-5,14.2-4.9L3.8,4.9c0,0,0,0,0,0c0,0,0,0,0,0c0,0,0,0,0,0L14.2-4.9C14.2-4.9,14.2-4.9,14.2-4.9z"/><path d="M14.3-4.6C14.3-4.6,14.3-4.6,14.3-4.6L3.9,5.2c0,0,0,0,0,0c0,0,0,0,0,0c0,0,0,0,0,0L14.3-4.6C14.3-4.6,14.3-4.6,14.3-4.6     z"/><path d="M14.4-4.3C14.4-4.3,14.4-4.3,14.4-4.3L4,5.6c0,0,0,0,0,0c0,0,0,0,0,0c0,0,0,0,0,0L14.4-4.3C14.4-4.3,14.4-4.3,14.4-4.3z"/><path d="M14.5-4C14.5-4,14.5-4,14.5-4L4.2,5.9c0,0,0,0,0,0c0,0,0,0,0,0c0,0,0,0,0,0L14.5-4C14.5-3.9,14.5-4,14.5-4z"/><path d="M14.7-3.6C14.6-3.7,14.6-3.7,14.7-3.6L4.3,6.2c0,0,0,0,0,0c0,0,0,0,0,0c0,0,0,0,0,0L14.7-3.6C14.7-3.6,14.7-3.6,14.7-3.6     z"/><path d="M15-2.7C15-2.7,15-2.7,15-2.7L4.7,7.2c0,0,0,0,0,0c0,0,0,0,0,0c0,0,0,0,0,0L15-2.7C15-2.6,15-2.6,15-2.7z"/><path d="M15.2-2.3C15.1-2.3,15.1-2.3,15.2-2.3L4.8,7.5c0,0,0,0,0,0c0,0,0,0,0,0c0,0,0,0,0,0L15.2-2.3C15.2-2.3,15.2-2.3,15.2-2.3     z"/><path d="M15.3-2C15.3-2,15.3-2,15.3-2L4.9,7.8c0,0,0,0,0,0c0,0,0,0,0,0c0,0,0,0,0,0L15.3-2C15.3-2,15.3-2,15.3-2z"/><path d="M15.4-1.7C15.4-1.7,15.4-1.7,15.4-1.7L5,8.2c0,0,0,0,0,0c0,0,0,0,0,0c0,0,0,0,0,0L15.4-1.7C15.4-1.6,15.4-1.7,15.4-1.7z"/><path d="M15.5-1.3C15.5-1.4,15.5-1.4,15.5-1.3L5.1,8.5c0,0,0,0,0,0c0,0,0,0,0,0c0,0,0,0,0,0L15.5-1.3C15.5-1.3,15.5-1.3,15.5-1.3     z"/><path d="M15.7-1C15.6-1,15.6-1,15.7-1L5.3,8.8c0,0,0,0,0,0c0,0,0,0,0,0c0,0,0,0,0,0L15.7-1C15.7-1,15.7-1,15.7-1z"/><path d="M15.8-0.7C15.8-0.7,15.8-0.7,15.8-0.7L5.4,9.2c0,0,0,0,0,0c0,0,0,0,0,0c0,0,0,0,0,0L15.8-0.7C15.8-0.7,15.8-0.7,15.8-0.7     z"/><path d="M15.9-0.4C15.9-0.4,15.9-0.4,15.9-0.4L5.5,9.5c0,0,0,0,0,0c0,0,0,0,0,0c0,0,0,0,0,0L15.9-0.4C15.9-0.3,15.9-0.4,15.9-0.4     z"/><path d="M16,0C16-0.1,16-0.1,16,0L5.6,9.8c0,0,0,0,0,0c0,0,0,0,0,0c0,0,0,0,0,0L16,0C16,0,16,0,16,0z"/><path d="M16.2,0.3C16.1,0.3,16.1,0.3,16.2,0.3L5.8,10.1c0,0,0,0,0,0c0,0,0,0,0,0c0,0,0,0,0,0L16.2,0.3     C16.2,0.3,16.2,0.3,16.2,0.3z"/><path d="M16.3,0.6C16.3,0.6,16.3,0.6,16.3,0.6L5.9,10.5c0,0,0,0,0,0c0,0,0,0,0,0c0,0,0,0,0,0L16.3,0.6     C16.3,0.6,16.3,0.6,16.3,0.6z"/><path d="M16.4,0.9C16.4,0.9,16.4,0.9,16.4,0.9L6,10.8c0,0,0,0,0,0c0,0,0,0,0,0c0,0,0,0,0,0L16.4,0.9C16.4,1,16.4,1,16.4,0.9z"/><path d="M16.5,1.3C16.5,1.3,16.5,1.3,16.5,1.3L6.1,11.1c0,0,0,0,0,0c0,0,0,0,0,0c0,0,0,0,0,0L16.5,1.3     C16.5,1.3,16.5,1.3,16.5,1.3z"/><path d="M16.7,1.6C16.6,1.6,16.6,1.6,16.7,1.6L6.3,11.4c0,0,0,0,0,0c0,0,0,0,0,0c0,0,0,0,0,0L16.7,1.6     C16.7,1.6,16.7,1.6,16.7,1.6z"/><path d="M16.8,1.9C16.8,1.9,16.8,1.9,16.8,1.9L6.4,11.8c0,0,0,0,0,0c0,0,0,0,0,0c0,0,0,0,0,0L16.8,1.9C16.8,2,16.8,1.9,16.8,1.9z     "/><path d="M16.9,2.3C16.9,2.2,16.9,2.2,16.9,2.3L6.5,12.1c0,0,0,0,0,0c0,0,0,0,0,0c0,0,0,0,0,0L16.9,2.3     C16.9,2.3,16.9,2.3,16.9,2.3z"/><path d="M17,2.6C17,2.6,17,2.6,17,2.6L6.6,12.4c0,0,0,0,0,0c0,0,0,0,0,0c0,0,0,0,0,0L17,2.6C17,2.6,17,2.6,17,2.6z"/><path d="M17.2,2.9C17.1,2.9,17.1,2.9,17.2,2.9L6.8,12.8c0,0,0,0,0,0c0,0,0,0,0,0c0,0,0,0,0,0L17.2,2.9     C17.2,2.9,17.2,2.9,17.2,2.9z"/><path d="M17.3,3.2C17.3,3.2,17.3,3.2,17.3,3.2L6.9,13.1c0,0,0,0,0,0c0,0,0,0,0,0c0,0,0,0,0,0L17.3,3.2     C17.3,3.3,17.3,3.2,17.3,3.2z"/><path d="M17.4,3.6C17.4,3.5,17.4,3.5,17.4,3.6L7,13.4c0,0,0,0,0,0c0,0,0,0,0,0c0,0,0,0,0,0L17.4,3.6C17.4,3.6,17.4,3.6,17.4,3.6z     "/><path d="M17.5,3.9C17.5,3.9,17.5,3.9,17.5,3.9L7.1,13.7c0,0,0,0,0,0c0,0,0,0,0,0c0,0,0,0,0,0L17.5,3.9     C17.5,3.9,17.5,3.9,17.5,3.9z"/><path d="M17.7,4.2C17.6,4.2,17.6,4.2,17.7,4.2L7.3,14.1c0,0,0,0,0,0c0,0,0,0,0,0c0,0,0,0,0,0L17.7,4.2     C17.7,4.2,17.7,4.2,17.7,4.2z"/><path d="M17.8,4.5C17.8,4.5,17.7,4.5,17.8,4.5L7.4,14.4c0,0,0,0,0,0c0,0,0,0,0,0c0,0,0,0,0,0L17.8,4.5     C17.8,4.6,17.8,4.6,17.8,4.5z"/><path d="M17.9,4.9C17.9,4.9,17.9,4.9,17.9,4.9L7.5,14.7c0,0,0,0,0,0c0,0,0,0,0,0c0,0,0,0,0,0L17.9,4.9     C17.9,4.9,17.9,4.9,17.9,4.9z"/></g></g><g><path d="M16.1,1c0.1,0,0.2,0,0.2,0c0.1,0.1,0.2,0.4,0.2,0.5c0,0.1,0.1,0.1,0.1,0.2c0,0,0,0,0,0c0.1,0,0.1,0,0.2-0.1    c0.1-0.1,0.1-0.2,0.2-0.2c0.1,0,0.2,0,0.2,0c0.1,0,0.2,0,0.2-0.1c0-0.1,0-0.2-0.1-0.2c0,0-0.2-0.1-0.5-0.1c-0.1,0-0.1,0-0.2,0.1    c0-0.1-0.1-0.3-0.3-0.4c-0.1-0.1-0.3-0.2-0.5-0.1c-0.1,0-0.2,0.1-0.1,0.2C15.9,1,16,1,16.1,1z"/><path d="M17.5,3.7c0,0.1,0.2,0.1,0.2,0.1c0,0,0.2-0.1,0.4,0c0.1,0,0.3,0.2,0.4,0.3c0,0.1,0.1,0.1,0.2,0.1c0,0,0,0,0,0    c0.1,0,0.1-0.1,0.1-0.2c0,0,0-0.5,0.3-0.8c0.1-0.1,0.2-0.1,0.4-0.1c0.1,0,0.2,0,0.2-0.1c0-0.1,0-0.2-0.1-0.2c-0.3,0-0.5,0-0.7,0.2    c-0.2,0.2-0.3,0.4-0.4,0.6c-0.1-0.1-0.2-0.1-0.3-0.2c-0.3-0.1-0.6,0.1-0.6,0.1C17.5,3.5,17.5,3.6,17.5,3.7z"/><path d="M19.4,16.9c-2.8,1.4-4.4,1.1-5.2,0.6c-0.7-0.5-1.2-1.3-1.2-2.4c0-1.4,1.1-2.4,1.1-2.4c0.1-0.1,0.1-0.1,0.1-0.2    s-0.1-0.2-0.1-0.2c0,0-0.3-0.1-0.8-0.2l2-4.2c0-0.1,0-0.2-0.1-0.3c-0.1-0.1-0.2-0.1-0.3,0l-5.8,3.7l-0.1-1l5.3-3.1    c0.1,0,0.1-0.1,0.1-0.2c0-0.1,0.3-2.3-1.3-4.2C12,1.4,10.2,0.6,7.8,0.4c-0.1,0-0.2,0.1-0.3,0.2c0,0.1,0,0.2,0.1,0.3    c0,0,1.2,1,1.9,2.6c0.9,2,0.6,3.9-0.6,5.9L8.2,1.9c0-0.1-0.1-0.2-0.2-0.2c-0.1,0-0.2,0.1-0.3,0.2c0,0.1-1.1,5.6-3,10.4    c0,0.1,0,0.2,0.1,0.3c0,0,0.1,0.1,0.2,0.1c0,0,0.1,0,0.1,0l3.5-2.1l0.1,1.1l-3.4,2.2c-0.1,0-0.1,0.1-0.1,0.2c0,0.1,0,0.1,0.1,0.2    c0,0,0.7,0.9,0.6,2.1c0,0,0,0,0,0c-0.3,0.2-0.6,0.4-0.9,0.6c-1.8,0.8-3.4,0.6-4.2,0.1c-0.1-0.1-0.3,0-0.3,0.1    c-0.1,0.1,0,0.3,0.1,0.3C1.6,18,3.4,18,5.1,17.2c1-0.5,1.7-1.2,2.4-1.9c0.5-0.6,1.1-1.2,1.9-1.7c1.4-1,2.6-1.1,3.5-1.1    c0.1,0,0.1,0,0.2,0c0.2,0,0.4,0.1,0.5,0.1c-0.4,0.4-1,1.3-1,2.5c0,1.2,0.5,2.2,1.4,2.8c0.4,0.3,1.1,0.5,1.9,0.5    c0.9,0,2.2-0.3,3.7-1c0.1-0.1,0.2-0.2,0.1-0.3C19.7,16.9,19.5,16.8,19.4,16.9z M8.5,1c1.9,0.3,3.4,1,4.3,2.1    C14,4.5,14,6.3,13.9,6.7L9.5,9.3C11.9,5.4,9.6,2.2,8.5,1z M5.4,11.8c1.2-3.1,2-6.4,2.4-8.3l0.6,6.4L5.4,11.8z M11.5,11.6    c-0.1,0-0.2,0-0.3-0.1c-0.1-0.1-0.1-0.2,0-0.3c0.1,0,0.2,0,0.3,0.1C11.6,11.4,11.6,11.6,11.5,11.6z M12.2,11.2    c-0.1,0-0.2,0-0.3-0.1c-0.1-0.1-0.1-0.2,0-0.3c0.1,0,0.2,0,0.3,0.1C12.3,11,12.3,11.1,12.2,11.2z M12.9,10.7c-0.1,0-0.2,0-0.3-0.1    s-0.1-0.2,0-0.3c0.1,0,0.2,0,0.3,0.1C13,10.5,13,10.7,12.9,10.7z"/></g></g><text x="0" y="35" fill="#000000" font-size="5px" font-weight="bold" font-family="'Helvetica Neue', Helvetica, Arial-Unicode, Arial, Sans-serif">Created by Louis Hesse</text><text x="0" y="40" fill="#000000" font-size="5px" font-weight="bold" font-family="'Helvetica Neue', Helvetica, Arial-Unicode, Arial, Sans-serif">from the Noun Project</text></svg>