<svg xmlns="http://www.w3.org/2000/svg" xmlns:xlink="http://www.w3.org/1999/xlink" version="1.1" x="0px" y="0px" viewBox="0 0 95 95" style="enable-background:new 0 0 100 100; stroke-width: 2px;" xml:space="preserve"><g><path d="M86.5,93.2l5.7-5.7L65,60.4l-2.1,2.1l-2.3-2.3c4.7-5,7.5-11.7,7.5-19.1C68.2,25.6,55.6,13,40.1,13S12,25.6,12,41.1   s12.6,28.1,28.1,28.1c7.4,0,14.1-2.9,19.1-7.5l2.3,2.3L59.4,66L86.5,93.2z M40.1,67.2C25.7,67.2,14,55.5,14,41.1S25.7,15,40.1,15   s26.1,11.7,26.1,26.1S54.5,67.2,40.1,67.2z"/></g></svg>