<svg xmlns="http://www.w3.org/2000/svg" xmlns:xlink="http://www.w3.org/1999/xlink" version="1.1" x="0px" y="0px" viewBox="0 0 64 80" enable-background="new 0 0 64 64" xml:space="preserve"><metadata><?xpacket begin="&#65279;" id="W5M0MpCehiHzreSzNTczkc9d"?><x:xmpmeta xmlns:x="adobe:ns:meta/" x:xmptk="Adobe XMP Core 5.3-c011 66.145661, 2012/02/06-14:56:27        "/><?xpacket end="w"?></metadata><g><g style="stroke: #ffffff; fill: #ffffff; stroke-width:0px;"><path d="M2,14h16.263c0.892,3.444,4.017,6,7.737,6s6.845-2.556,7.737-6H62c1.104,0,2-0.896,2-2s-0.896-2-2-2H33.737    C32.845,6.556,29.72,4,26,4s-6.845,2.556-7.737,6H2c-1.104,0-2,0.896-2,2S0.896,14,2,14z M26,8c2.206,0,4,1.794,4,4s-1.794,4-4,4    s-4-1.794-4-4S23.794,8,26,8z"/><path d="M62,30h-8.263c-0.892-3.444-4.017-6-7.737-6s-6.845,2.556-7.737,6H2c-1.104,0-2,0.896-2,2s0.896,2,2,2h36.263    c0.892,3.444,4.017,6,7.737,6s6.845-2.556,7.737-6H62c1.104,0,2-0.896,2-2S63.104,30,62,30z M46,36c-2.206,0-4-1.794-4-4    s1.794-4,4-4s4,1.794,4,4S48.206,36,46,36z"/><path d="M62,50H25.737c-0.892-3.444-4.017-6-7.737-6s-6.845,2.556-7.737,6H2c-1.104,0-2,0.896-2,2s0.896,2,2,2h8.263    c0.892,3.444,4.017,6,7.737,6s6.845-2.556,7.737-6H62c1.104,0,2-0.896,2-2S63.104,50,62,50z M18,56c-2.206,0-4-1.794-4-4    s1.794-4,4-4c2.205,0,3.999,1.793,4,3.998c0,0,0,0.001,0,0.002s0,0.002,0,0.002C21.999,54.207,20.205,56,18,56z"/></g></g></svg>