<svg xmlns="http://www.w3.org/2000/svg" xmlns:xlink="http://www.w3.org/1999/xlink" version="1.1" x="0px" y="0px" viewBox="0 0 100 125" style="stroke: #ffffff; fill: #ffffff; stroke-width: 0px; enable-background:new 0 0 100 100;" xml:space="preserve"><path d="M73.5,48.6c-0.7-11.4-9.7-20.8-21.1-22c-7.1-0.7-14,1.8-19,6.8c-5,5-7.5,11.9-6.8,19c1.1,11.1,10,19.9,21.1,21  c0.8,0.1,1.6,0.1,2.4,0.1c4.7,0,9.1-1.3,13-4c1-0.7,1.3-2.1,0.6-3.1c-0.7-1-2.1-1.3-3.1-0.6c-3.7,2.5-8,3.5-12.4,3.1  c-9-0.9-16.1-8-17-17c-0.6-5.7,1.4-11.3,5.5-15.4s9.6-6,15.4-5.5c9.2,0.9,16.5,8.5,17,17.8c0.1,2.5-0.2,5-1,7.3  c-0.6,1.7-2.2,2.9-4.1,2.9c-2.4,0-4.3-1.9-4.3-4.3V40.6c0-1.2-1-2.3-2.3-2.3s-2.3,1-2.3,2.3v0.7c-1.8-1.3-3.9-2-6.3-2  C42.9,39.2,38,44.1,38,50s4.8,10.8,10.8,10.8c2.7,0,5.1-1,7-2.6c1.4,3.1,4.5,5.4,8.1,5.4c3.8,0,7.1-2.4,8.4-5.9  C73.2,54.7,73.6,51.7,73.5,48.6z M48.8,56.3c-3.5,0-6.3-2.8-6.3-6.3s2.8-6.3,6.3-6.3s6.3,2.8,6.3,6.3S52.2,56.3,48.8,56.3z"/></svg>