<svg xmlns="http://www.w3.org/2000/svg" viewBox="0 0 64 80" x="0px" y="0px"><title>boat-sea-ocean-transportation</title><g style="stroke: #ffffff; stroke-width:0px; fill: #ffffff" data-name="outline cut"><path d="M31.323,14.262A47.55,47.55,0,0,0,3.078,2,1,1,0,0,0,2,3.091l.011.114A47.5,47.5,0,0,0,14.9,31.689l1.448-1.378A45.512,45.512,0,0,1,4.115,4.106,45.563,45.563,0,0,1,29.974,15.738Z"/><path d="M53.576,54.538a1,1,0,0,0,.908-1.419c-.823-1.786-1.7-3.564-2.6-5.285l-1.772.928c.455.87.9,1.755,1.342,2.647-1.007-.5-2.005-1.013-2.985-1.536l-.942,1.764c1.832.978,3.725,1.923,5.625,2.807A.986.986,0,0,0,53.576,54.538Z"/><path d="M20.074,11.121A43.361,43.361,0,0,0,7.923,6.709,1,1,0,0,0,6.747,7.9a43.076,43.076,0,0,0,1.3,4.826l1.9-.633c-.337-1.011-.636-2.042-.895-3.081a41.31,41.31,0,0,1,10.066,3.872Z"/><path d="M11.121,19.779l1.756-.957c-.4-.738-.784-1.493-1.137-2.246l-1.81.848C10.3,18.213,10.7,19.006,11.121,19.779Z"/><path d="M43.5,49.381q1,.585,2.017,1.154l.976-1.746q-1-.558-1.983-1.135Z"/><path d="M58.949,16.535a2,2,0,0,0-2.828,0L52.758,19.9a11.156,11.156,0,0,0-3.272,7.514l-6.453,6.454a3.974,3.974,0,0,0-1.063-1.954l-4.149-4.149,1.792-1.792c1.263,1.508,2.507,3.059,3.7,4.631L44.9,29.4c-1.243-1.645-2.545-3.271-3.869-4.846l2.794-2.794a11.156,11.156,0,0,0,7.515-3.272l3.364-3.364a2,2,0,0,0,0-2.828L51.879,9.465a1.986,1.986,0,0,0-1.414-.586h0a1.982,1.982,0,0,0-1.412.586l-3.364,3.363a11.154,11.154,0,0,0-3.272,7.514L36.407,26.35,30.75,20.694l2.117-2.117c1.634,1.644,3.239,3.349,4.769,5.085l1.5-1.324c-1.559-1.765-3.193-3.5-4.855-5.175l2.477-2.477a11.156,11.156,0,0,0,7.514-3.272L47.636,8.05a2,2,0,0,0,0-2.828L44.808,2.394a2,2,0,0,0-2.829,0L38.615,5.758a11.156,11.156,0,0,0-3.272,7.515L29.336,19.28l-2.923-2.924a4,4,0,0,0-5.657,0L16.514,20.6a4,4,0,0,0,0,5.656l2.923,2.923L13.55,35.065a11.156,11.156,0,0,0-7.515,3.272L2.672,41.7a2,2,0,0,0,0,2.828L5.5,47.357a2,2,0,0,0,2.828,0l3.364-3.363a11.154,11.154,0,0,0,3.272-7.515l2.351-2.351.053.054c1.561,1.56,3.184,3.1,4.823,4.563l1.334-1.49c-1.612-1.443-3.208-2.953-4.743-4.487l-.053-.054,2.122-2.121,5.657,5.657-5.887,5.886a11.161,11.161,0,0,0-7.515,3.272L9.743,48.772a2,2,0,0,0,0,2.829l2.828,2.828a2,2,0,0,0,2.828,0l3.365-3.365a11.155,11.155,0,0,0,3.271-7.513l2.645-2.646c1.566,1.326,3.187,2.635,4.835,3.891L30.728,43.2C29.151,42,27.6,40.752,26.1,39.485l1.821-1.821,4.148,4.148a3.967,3.967,0,0,0,1.954,1.064l-6.332,6.332a11.155,11.155,0,0,0-7.514,3.271l-3.365,3.364a2,2,0,0,0,0,2.829l2.83,2.828a2,2,0,0,0,2.828,0l3.363-3.364a11.154,11.154,0,0,0,3.272-7.514l3.534-3.534A120.1,120.1,0,0,0,58.311,61.007l2.3.906a1,1,0,0,0,1.3-1.289l-.755-1.965A120.152,120.152,0,0,0,47.188,32.54L50.9,28.828a11.155,11.155,0,0,0,7.515-3.271l3.364-3.365a2,2,0,0,0,0-2.828ZM47.1,14.242l3.364-3.363,2.829,2.827-3.365,3.365a9.185,9.185,0,0,1-4.67,2.519l-.677-.677A9.169,9.169,0,0,1,47.1,14.242Zm-7.072-7.07,3.365-3.364,2.829,2.827h0L42.858,10a9.175,9.175,0,0,1-4.671,2.518l-.676-.676A9.176,9.176,0,0,1,40.029,7.172ZM10.278,42.58,6.914,45.943,4.086,43.115l3.363-3.364A9.171,9.171,0,0,1,12.926,37.1,9.178,9.178,0,0,1,10.278,42.58Zm7.072,7.07-3.365,3.365-2.828-2.828,3.364-3.365A9.171,9.171,0,0,1,20,44.175,9.171,9.171,0,0,1,17.35,49.65Zm7.07,7.072-3.363,3.364-2.829-2.829,3.364-3.363a9.166,9.166,0,0,1,5.475-2.648A9.173,9.173,0,0,1,24.42,56.722Zm-6.492-31.88a2,2,0,0,1,0-2.828l4.242-4.243a2,2,0,0,1,2.829,0l2.923,2.923-7.071,7.071Zm9.994,9.994-5.657-5.657,7.071-7.071,5.657,5.656ZM33.484,40.4,29.336,36.25l7.071-7.072,4.149,4.149a2,2,0,0,1,0,2.828L36.312,40.4A2,2,0,0,1,33.484,40.4ZM59.233,59.221l-.19-.075A118.112,118.112,0,0,1,34.076,45.651L45.751,33.977A118.108,118.108,0,0,1,59.233,59.221ZM57,24.143a9.176,9.176,0,0,1-4.67,2.518l-.677-.677a9.192,9.192,0,0,1,2.519-4.671l3.363-3.364,2.83,2.828Z"/></g><text x="0" y="84" fill="#000000" font-size="5px" font-weight="bold" font-family="'Helvetica Neue', Helvetica, Arial-Unicode, Arial, Sans-serif">from the Noun Project</text></svg>