<svg xmlns="http://www.w3.org/2000/svg" xmlns:xlink="http://www.w3.org/1999/xlink" version="1.1" x="0px" y="0px" viewBox="0 0 100 125" enable-background="new 0 0 100 100" xml:space="preserve" style="stroke: #ffffff; fill: #ffffff; stroke-width: 0px"><g display="none"><rect x="-180.877" y="-877.172" display="inline" width="1370.931" height="1263.231"/></g><g display="none" opacity="0.31"><g display="inline"><path d="M78.281,19.476l3.275-9.623l-11.482,2.586v12.529c0,0.251-0.179,0.468-0.424,0.516l-6.982,1.382v4.681L84.2,27.29    l-5.832-7.314C78.256,19.834,78.223,19.647,78.281,19.476z"/><path d="M53.4,25.103l13.516-2.673V5L51.713,8.007h-4.631v31.674H22.405c-5.637,0-10.224,4.586-10.224,10.224v17.71    c0,2.462,2.003,4.465,4.465,4.465h1.073v18.458c0,2.462,2.003,4.464,4.465,4.464h8.444c2.462,0,4.465-2.002,4.465-4.464V49.272    h11.99v20.39H53.4V48.523c3.062-1.356,5.111-4.389,5.175-7.77l0.02-1.072H53.4V25.103z"/><path d="M26.407,34.954c5.399,0,9.791-4.393,9.791-9.791s-4.392-9.791-9.791-9.791c-5.399,0-9.792,4.393-9.792,9.791    S21.008,34.954,26.407,34.954z"/></g></g><g><path d="M72.855,11.257C65.941,7.164,58.038,5,50.001,5c-8.038,0-15.941,2.164-22.855,6.257C13.486,19.346,5,34.191,5,49.999   c0,11.872,4.604,23.082,12.965,31.566l1.358,1.378l0.944-1.689c4.314-7.721,12.48-12.518,21.311-12.518h16.866   c8.821,0,16.978,4.797,21.29,12.518l0.943,1.689l1.457-1.482C90.431,72.988,95,61.814,95,49.999   c0-11.814-4.569-22.987-12.866-31.46C79.371,15.717,76.249,13.267,72.855,11.257z M50.003,60.499   c-11.774,0-21.353-9.579-21.353-21.353c0-11.774,9.579-21.354,21.353-21.354c11.775,0,21.354,9.579,21.354,21.354   C71.357,50.92,61.777,60.499,50.003,60.499z"/><path d="M50.003,21.35c-9.812,0-17.794,7.983-17.794,17.795c0,9.812,7.982,17.795,17.794,17.795   c9.813,0,17.796-7.983,17.796-17.795C67.799,29.333,59.815,21.35,50.003,21.35z"/><path d="M77.807,85.376l-0.503-1.073c-3.424-7.296-10.828-12.01-18.861-12.01H41.578c-8.044,0-15.455,4.714-18.881,12.01   l-0.503,1.073l0.949,0.708c1.24,0.925,2.586,1.819,4.001,2.658C34.058,92.836,41.962,95,50.001,95   c8.039,0,15.942-2.164,22.857-6.259c1.414-0.837,2.76-1.731,4-2.657L77.807,85.376z"/></g></svg>