<svg xmlns="http://www.w3.org/2000/svg" xmlns:xlink="http://www.w3.org/1999/xlink" version="1.1" x="0px" y="0px" viewBox="0 0 90 90" style="enable-background:new 0 0 100 100; stroke: #ffffff; fill: #ffffff; stroke-width: 0px;" xml:space="preserve"><g><path d="M-402.8,45.9V35.6c0-1.4-1.1-2.5-2.5-2.5h-9c-1.1-4.9-5.5-8.5-10.7-8.5h-2.5V19c0-1.4-1.1-2.5-2.5-2.5s-2.5,1.1-2.5,2.5   v5.6h-2.5c-2.9,0-5.7,1.1-7.8,3.2c-1.5,1.5-2.5,3.3-2.9,5.3h-9c-1.4,0-2.5,1.1-2.5,2.5v10.4c-5.2,1.1-9.1,5.8-9.1,11.3   c0,5.5,3.9,10.2,9.1,11.3V79c0,1.4,1.1,2.5,2.5,2.5h49.4c1.4,0,2.5-1.1,2.5-2.5V68.6c5.2-1.1,9.1-5.8,9.1-11.3   C-393.7,51.7-397.6,47.1-402.8,45.9z M-457.2,63.4c-2.4-1-4.1-3.4-4.1-6.1c0-2.8,1.7-5.1,4.1-6.1V63.4z M-439.2,31.3   c1.1-1.1,2.6-1.8,4.2-1.8h10c2.4,0,4.5,1.4,5.5,3.5h-20.9C-440.2,32.4-439.7,31.8-439.2,31.3z M-407.8,76.5h-44.4V38.1h44.4V76.5z    M-402.8,63.4V51.2c2.4,1,4.1,3.4,4.1,6.1C-398.7,60-400.4,62.4-402.8,63.4z"/></g><g><circle cx="-441.5" cy="57.3" r="5.8"/></g><g><circle cx="-418.5" cy="57.3" r="5.8"/></g><g><path d="M-281.2,32.7c0.3,0,0.6,0,0.9,0c5.4,0,9.8-4.4,9.8-9.8c0-5.4-4.4-9.8-9.8-9.8c-5.4,0-9.8,4.4-9.8,9.8c0,3.3,1.6,6.2,4.2,8   l-5.6,21c-1.5-0.4-3.1-0.6-4.7-0.6c-4.5,0-8.6,1.7-11.7,4.4l-18.1-18.1c1.3-2,2.1-4.5,2.1-7.1c0-7-5.7-12.7-12.7-12.7   c-7,0-12.7,5.7-12.7,12.7c0,7,5.7,12.7,12.7,12.7c2.6,0,5-0.8,7.1-2.1l18.3,18.3c-1.8,2.8-2.8,6-2.8,9.5c0,9.8,8,17.8,17.8,17.8   s17.8-8,17.8-17.8c0-6.6-3.6-12.4-9-15.4l0.6,0.2L-281.2,32.7z M-280.3,18.2c2.6,0,4.8,2.1,4.8,4.8c0,2.6-2.1,4.8-4.8,4.8   c-2.6,0-4.8-2.1-4.8-4.8C-285.1,20.3-283,18.2-280.3,18.2z M-336.7,38.3c-4.3,0-7.7-3.5-7.7-7.7c0-4.3,3.5-7.7,7.7-7.7   c4.3,0,7.7,3.5,7.7,7.7C-329,34.8-332.4,38.3-336.7,38.3z M-283.5,69c0,7.1-5.7,12.8-12.8,12.8s-12.8-5.7-12.8-12.8   c0-7,5.7-12.8,12.8-12.8S-283.5,62-283.5,69z"/></g><g><path d="M-153,68h-8.3l-6.9-10h1.4c1.1,0,2-0.9,2-2V44c0-1.1-0.9-2-2-2h-12.4l-6.9-10h5.5c1.1,0,2-0.9,2-2V18c0-1.1-0.9-2-2-2   h-18.7c-1.1,0-2,0.9-2,2v12c0,1.1,0.9,2,2,2h5.5l-6.9,10h-12.4c-1.1,0-2,0.9-2,2v12c0,1.1,0.9,2,2,2h1.4l-6.9,10h-8.3   c-1.1,0-2,0.9-2,2v12c0,1.1,0.9,2,2,2h18.7c1.1,0,2-0.9,2-2V70c0-1.1-0.9-2-2-2h-5.5l6.9-10h5.9l6.9,10h-5.3c-1.1,0-2,0.9-2,2v12   c0,1.1,0.9,2,2,2h18.7c1.1,0,2-0.9,2-2V70c0-1.1-0.9-2-2-2h-5.7l6.9-10h6.3l6.9,10h-5.5c-1.1,0-2,0.9-2,2v12c0,1.1,0.9,2,2,2h18.7   c1.1,0,2-0.9,2-2V70C-151,68.9-151.9,68-153,68z M-210.3,72v8H-225v-8H-210.3z M-197.3,28v-8h14.7v8H-197.3z M-196.5,54h-14.7v-8   h14.7V54z M-182.7,72v8h-14.7v-8H-182.7z M-185.5,58h1.2l-5.9,8.5l-5.9-8.5h1.7c1.1,0,2-0.9,2-2V44c0-1.1-0.9-2-2-2h-1.4l5.9-8.5   l5.9,8.5h-1.4c-1.1,0-2,0.9-2,2v12C-187.5,57.1-186.6,58-185.5,58z M-168.8,54h-14.7v-8h14.7V54z M-155,80h-14.7v-8h14.7V80z"/></g><g><path d="M-31.7,48.5l-4.9-4.8c-0.8-0.8-2-0.8-2.8,0c-0.8,0.8-0.8,2,0,2.8L-38,48h-19.1c-0.9-5.6-5.3-10-10.9-10.9V18l1.4,1.4   c0.4,0.4,0.9,0.6,1.4,0.6c0.5,0,1-0.2,1.4-0.6c0.8-0.8,0.8-2,0-2.8l-4.9-4.8c-0.8-0.8-2.1-0.8-2.8,0l-4.9,4.8c-0.8,0.8-0.8,2,0,2.8   c0.8,0.8,2,0.8,2.8,0L-72,18V37c-5.6,0.9-10.1,5.3-10.9,10.9H-102l1.4-1.4c0.8-0.8,0.8-2.1,0-2.8c-0.8-0.8-2-0.8-2.8,0l-4.9,4.8   c-0.8,0.8-0.8,2,0,2.8l4.9,4.8c0.4,0.4,0.9,0.6,1.4,0.6s1-0.2,1.4-0.6c0.8-0.8,0.8-2,0-2.8L-102,52H-83c0.9,5.6,5.3,10.1,11,11v19   l-1.4-1.4c-0.8-0.8-2-0.8-2.8,0c-0.8,0.8-0.8,2,0,2.8l4.9,4.8c0.4,0.4,0.9,0.6,1.4,0.6s1-0.2,1.4-0.6l4.9-4.8c0.8-0.8,0.8-2,0-2.8   c-0.8-0.8-2-0.8-2.8,0L-68,82V63c5.6-0.9,10.1-5.4,11-11H-38l-1.4,1.4c-0.8,0.8-0.8,2,0,2.8c0.4,0.4,0.9,0.6,1.4,0.6s1-0.2,1.4-0.6   l4.9-4.8C-31,50.6-31,49.3-31.7,48.5z M-70,59.1c-5,0-9.1-4.1-9.1-9.1s4.1-9.1,9.1-9.1s9.1,4.1,9.1,9.1S-65,59.1-70,59.1z"/></g><g><path d="M87.1,50c0,9.9-3.9,19.2-10.9,26.3C69,83.5,59.5,87.1,50,87.1s-19-3.6-26.3-10.9c-0.8-0.8-0.8-2,0-2.8l22-22   c0.8-0.8,2-0.8,2.8,0l5.4,5.4l7.4-7.4h-3.4c-1.1,0-2-0.9-2-2c0-1.1,0.9-2,2-2h8.2c1.1,0,2,0.9,2,2v8.2c0,1.1-0.9,2-2,2   c-1.1,0-2-0.9-2-2v-3.3l-8.8,8.8c-0.8,0.8-2,0.8-2.8,0l-5.4-5.4L28,74.8c13,11.5,33,11.1,45.4-1.4c6.3-6.3,9.7-14.6,9.7-23.4   s-3.4-17.2-9.7-23.4S58.8,16.9,50,16.9s-17.2,3.4-23.4,9.7C16.2,37,13.9,53.2,21,66c0.5,1,0.2,2.2-0.8,2.7c-1,0.5-2.2,0.2-2.7-0.8   c-8-14.4-5.4-32.6,6.3-44.2c7-7,16.3-10.9,26.3-10.9s19.2,3.9,26.3,10.9C83.3,30.8,87.1,40.1,87.1,50z"/></g><g><path d="M327.1,50c0,20.5-16.7,37.1-37.1,37.1c-14.6,0-27.8-8.6-33.9-21.8c-0.5-1,0-2.2,1-2.6c1-0.5,2.2,0,2.6,1   c5.4,11.8,17.2,19.5,30.2,19.5c17.6,0,32-13.8,33.1-31.1h-23.2c-0.9,0-1.7-0.6-1.9-1.5l-3.5-13.6l-5,26.7c-0.2,1-1,1.6-2,1.6   c0,0,0,0,0,0c-1,0-1.8-0.7-2-1.6l-3-17.2l-1.3,4.2c-0.3,0.8-1,1.4-1.9,1.4h-24.4c-1.1,0-2-0.9-2-2c0-20.5,16.7-37.1,37.1-37.1   c15,0,28.4,8.9,34.2,22.7c0.4,1,0,2.2-1.1,2.6c-1,0.4-2.2,0-2.6-1.1c-5.2-12.3-17.2-20.2-30.5-20.2c-17.6,0-32,13.8-33.1,31.1h20.9   l3.3-10.6c0.3-0.9,1.1-1.5,2-1.4c0.9,0.1,1.7,0.8,1.8,1.6l2.5,14.3l4.6-24.7c0.2-0.9,1-1.6,1.9-1.6c0.9,0,1.8,0.6,2,1.5l5.4,20.9   h23.7C326.2,48,327.1,48.9,327.1,50z"/></g><g><path d="M170,12.9c-20.5,0-37.1,16.7-37.1,37.1c0,9.7,3.7,18.8,10.4,25.8c3.6,3.7,7.8,6.6,12.5,8.5c0,0,0,0,0.1,0   c2.5,1,5.2,1.8,7.9,2.3c2,0.4,4.2,0.5,6.3,0.5s4.2-0.2,6.3-0.5c4.1-0.7,8.1-2.1,11.7-4.1c3.2-1.8,6.2-4,8.8-6.7   c6.7-7,10.4-16.1,10.4-25.8C207.1,29.5,190.5,12.9,170,12.9z M154.6,79.3c-2.9-1.5-5.5-3.4-7.9-5.8V63.2h7.9V79.3z M174,82.9   c-2.6,0.3-5.3,0.3-7.9,0V53.5h7.9V82.9z M193.3,73.6c-2,2-4.3,3.8-6.8,5.2h-1.1V43.6h7.9V73.6z M195.3,39.6h-11.9c-1.1,0-2,0.9-2,2   v39.2c0,0.1,0,0.2,0,0.4c-1.1,0.4-2.3,0.8-3.5,1.1V51.5c0-1.1-0.9-2-2-2H164c-1.1,0-2,0.9-2,2v30.6c-1.2-0.3-2.3-0.6-3.5-1v-20   c0-1.1-0.9-2-2-2h-11.9c-1.1,0-2,0.9-2,2v7.6c-3.8-5.5-5.8-12-5.8-18.8c0-18.3,14.9-33.1,33.1-33.1s33.1,14.9,33.1,33.1   c0,6.8-2,13.3-5.8,18.8V41.6C197.3,40.5,196.4,39.6,195.3,39.6z"/></g></svg>